<svg 
 xmlns="http://www.w3.org/2000/svg"
 xmlns:xlink="http://www.w3.org/1999/xlink"
 width="52px" height="52px">
<path fill-rule="evenodd"  fill="rgb(0, 0, 0)"
 d="M26.710,45.783 C25.027,45.783 21.596,45.252 19.999,44.999 L7.799,51.999 L7.799,40.299 C2.431,35.871 -0.003,29.886 -0.003,22.642 C-0.003,10.136 11.936,-0.001 26.710,-0.001 C38.993,-0.001 51.999,9.594 51.999,22.099 C51.999,34.605 41.463,45.783 26.710,45.783 ZM26.628,2.999 C13.559,2.999 2.997,11.967 2.997,23.029 C2.997,29.438 7.133,37.239 10.999,37.999 L10.999,46.999 L19.999,41.999 C21.412,42.223 24.510,42.999 26.000,42.999 C39.050,42.999 48.999,33.612 48.999,22.549 C48.999,11.487 37.494,2.999 26.628,2.999 Z"/>
</svg>